<mxfile host="65bd71144e">
    <diagram id="hmdb9-kVDvi3YjOiOn_H" name="Page-1">
        <mxGraphModel dx="892" dy="648" grid="0" gridSize="10" guides="1" tooltips="1" connect="1" arrows="1" fold="1" page="1" pageScale="1" pageWidth="850" pageHeight="1100" math="0" shadow="0">
            <root>
                <mxCell id="0"/>
                <mxCell id="1" parent="0"/>
                <mxCell id="15" value="storage abstraction" style="rounded=1;whiteSpace=wrap;html=1;verticalAlign=top;" parent="1" vertex="1">
                    <mxGeometry x="87.12" y="358" width="170" height="70" as="geometry"/>
                </mxCell>
                <mxCell id="2" value="h5py" style="rounded=1;whiteSpace=wrap;html=1;fontFamily=Courier New;" parent="1" vertex="1">
                    <mxGeometry x="98.12" y="385" width="44" height="30" as="geometry"/>
                </mxCell>
                <mxCell id="4" value="zarr" style="rounded=1;whiteSpace=wrap;html=1;fontFamily=Courier New;" parent="1" vertex="1">
                    <mxGeometry x="147" y="385" width="45.12" height="30" as="geometry"/>
                </mxCell>
                <mxCell id="5" value="HDMF schema objects&amp;nbsp;" style="rounded=1;whiteSpace=wrap;html=1;verticalAlign=top;" parent="1" vertex="1">
                    <mxGeometry x="87.12" y="150" width="170" height="170" as="geometry"/>
                </mxCell>
                <mxCell id="6" value="table" style="rounded=1;whiteSpace=wrap;html=1;" parent="1" vertex="1">
                    <mxGeometry x="98.12" y="210" width="70" height="20" as="geometry"/>
                </mxCell>
                <mxCell id="7" value="column" style="rounded=1;whiteSpace=wrap;html=1;rotation=-90;" parent="1" vertex="1">
                    <mxGeometry x="74.12" y="260" width="70" height="20" as="geometry"/>
                </mxCell>
                <mxCell id="8" value="column" style="rounded=1;whiteSpace=wrap;html=1;rotation=-90;" parent="1" vertex="1">
                    <mxGeometry x="98.12" y="260" width="70" height="20" as="geometry"/>
                </mxCell>
                <mxCell id="9" value="column" style="rounded=1;whiteSpace=wrap;html=1;rotation=-90;" parent="1" vertex="1">
                    <mxGeometry x="123.12" y="260" width="70" height="20" as="geometry"/>
                </mxCell>
                <mxCell id="11" value="timeseries" style="rounded=1;whiteSpace=wrap;html=1;" parent="1" vertex="1">
                    <mxGeometry x="177.12" y="210" width="70" height="20" as="geometry"/>
                </mxCell>
                <mxCell id="13" value="data" style="rounded=1;whiteSpace=wrap;html=1;rotation=-90;" parent="1" vertex="1">
                    <mxGeometry x="190" y="246.88" width="70" height="46.25" as="geometry"/>
                </mxCell>
                <mxCell id="14" value="timestamps" style="rounded=1;whiteSpace=wrap;html=1;rotation=-90;" parent="1" vertex="1">
                    <mxGeometry x="153.12" y="260" width="70" height="20" as="geometry"/>
                </mxCell>
                <mxCell id="16" value="..." style="rounded=1;whiteSpace=wrap;html=1;fontFamily=Courier New;" parent="1" vertex="1">
                    <mxGeometry x="198.12" y="385" width="45" height="30" as="geometry"/>
                </mxCell>
                <mxCell id="18" value="&lt;font&gt;/intervals/trials&lt;/font&gt;" style="rounded=1;whiteSpace=wrap;html=1;fontSize=6;fontStyle=1" parent="1" vertex="1">
                    <mxGeometry x="98.12" y="183" width="70" height="20" as="geometry"/>
                </mxCell>
                <mxCell id="19" value="&lt;font&gt;/processing/ephys/LFP&lt;/font&gt;" style="rounded=1;whiteSpace=wrap;html=1;fontStyle=1;fontSize=6;" parent="1" vertex="1">
                    <mxGeometry x="177.12" y="183" width="70" height="20" as="geometry"/>
                </mxCell>
                <mxCell id="22" value="&lt;b&gt;&lt;font face=&quot;Courier New&quot;&gt;pynwb&lt;/font&gt;&lt;/b&gt;" style="rounded=1;whiteSpace=wrap;html=1;verticalAlign=top;" parent="1" vertex="1">
                    <mxGeometry x="87.12" y="24" width="170" height="88" as="geometry"/>
                </mxCell>
                <mxCell id="25" value="&lt;font face=&quot;Courier New&quot;&gt;HDMFIO(path).read()&lt;/font&gt;" style="rounded=1;whiteSpace=wrap;html=1;" parent="1" vertex="1">
                    <mxGeometry x="96" y="52" width="148" height="21" as="geometry"/>
                </mxCell>
                <mxCell id="26" value="intervals" style="rounded=1;whiteSpace=wrap;html=1;fontSize=8;" parent="1" vertex="1">
                    <mxGeometry x="90.12" y="76" width="36.88" height="25" as="geometry"/>
                </mxCell>
                <mxCell id="27" value="processing" style="rounded=1;whiteSpace=wrap;html=1;fontSize=8;" parent="1" vertex="1">
                    <mxGeometry x="131" y="76" width="45" height="25" as="geometry"/>
                </mxCell>
                <mxCell id="29" value="units" style="rounded=1;whiteSpace=wrap;html=1;fontSize=8;" parent="1" vertex="1">
                    <mxGeometry x="180.62" y="76" width="34.38" height="25" as="geometry"/>
                </mxCell>
                <mxCell id="30" value="..." style="rounded=1;whiteSpace=wrap;html=1;fontSize=8;" parent="1" vertex="1">
                    <mxGeometry x="219" y="77" width="34" height="23.67" as="geometry"/>
                </mxCell>
                <mxCell id="33" value="" style="endArrow=none;startArrow=classic;html=1;entryX=0.5;entryY=1;entryDx=0;entryDy=0;exitX=0.5;exitY=0;exitDx=0;exitDy=0;endFill=0;" parent="1" source="5" target="22" edge="1">
                    <mxGeometry width="50" height="50" relative="1" as="geometry">
                        <mxPoint x="150" y="180" as="sourcePoint"/>
                        <mxPoint x="200" y="130" as="targetPoint"/>
                    </mxGeometry>
                </mxCell>
                <mxCell id="34" value="" style="endArrow=none;startArrow=classic;html=1;entryX=0.5;entryY=1;entryDx=0;entryDy=0;exitX=0.5;exitY=0;exitDx=0;exitDy=0;endFill=0;" parent="1" source="15" target="5" edge="1">
                    <mxGeometry width="50" height="50" relative="1" as="geometry">
                        <mxPoint x="167.75" y="358" as="sourcePoint"/>
                        <mxPoint x="167.75" y="320" as="targetPoint"/>
                    </mxGeometry>
                </mxCell>
                <mxCell id="36" value="&lt;b&gt;&lt;font face=&quot;Courier New&quot;&gt;lazynwb&lt;/font&gt;&lt;/b&gt;" style="rounded=1;whiteSpace=wrap;html=1;verticalAlign=top;" parent="1" vertex="1">
                    <mxGeometry x="317" y="24" width="179" height="134" as="geometry"/>
                </mxCell>
                <mxCell id="42" value="" style="curved=1;endArrow=classic;html=1;exitX=0.5;exitY=1;exitDx=0;exitDy=0;" parent="1" source="36" edge="1">
                    <mxGeometry width="50" height="50" relative="1" as="geometry">
                        <mxPoint x="418" y="188" as="sourcePoint"/>
                        <mxPoint x="260" y="400" as="targetPoint"/>
                        <Array as="points">
                            <mxPoint x="409" y="331"/>
                        </Array>
                    </mxGeometry>
                </mxCell>
                <mxCell id="46" value="get_df(path_or_paths)" style="rounded=1;whiteSpace=wrap;html=1;align=left;fontFamily=Courier New;fontSize=10;" parent="1" vertex="1">
                    <mxGeometry x="329" y="52" width="160" height="20" as="geometry"/>
                </mxCell>
                <mxCell id="47" value="get_column(path)" style="rounded=1;whiteSpace=wrap;html=1;align=left;fontFamily=Courier New;fontSize=10;" parent="1" vertex="1">
                    <mxGeometry x="329" y="77" width="120" height="20" as="geometry"/>
                </mxCell>
                <mxCell id="48" value="get_timeseries(path)" style="rounded=1;whiteSpace=wrap;html=1;align=left;fontFamily=Courier New;fontSize=10;" parent="1" vertex="1">
                    <mxGeometry x="329" y="102" width="150" height="20" as="geometry"/>
                </mxCell>
                <mxCell id="50" value="..." style="rounded=1;whiteSpace=wrap;html=1;fontSize=10;align=center;fontFamily=Courier New;" parent="1" vertex="1">
                    <mxGeometry x="329" y="127" width="150" height="18" as="geometry"/>
                </mxCell>
            </root>
        </mxGraphModel>
    </diagram>
</mxfile>